PathFileType	4	(X/Y/Z)	C:/Users/beibeiliu/ov580/test_trc/User3\out9_training_dense_left.trc
DataRate	CameraRate	NumFrames	NumMarkers	Units	OrigDataRate	OrigDataStartFrame	OrigNumFrames
120	120	16	19	mm	120	251	500
Frame#	Time	ThumbCMC			ThumbMCP			ThumbIP			ThumbTip			IndexMCP			IndexPIP			IndexTip			MiddleMCP			MiddlePIP			MiddleTip			RingMCP			RingPIP			RingTip			PinkyMCP			PinkyPIP			PinkyTip			BackHand1			BackHand2			BackHand3	
		X0	Y0	Z0	X1	Y1	Z1	X2	Y2	Z2	X3	Y3	Z3	X4	Y4	Z4	X5	Y5	Z5	X6	Y6	Z6	X7	Y7	Z7	X8	Y8	Z8	X9	Y9	Z9	X10	Y10	Z10	X11	Y11	Z11	X12	Y12	Z12	X13	Y13	Z13	X14	Y14	Z14	X15	Y15	Z15	X16	Y16	Z16	X17	Y17	Z17	X18	Y18	Z18	
250	2.08333	-117.076	44.6995	71.5515	-96.3078	30.6797	48.9775	-85.4256	17.2912	24.7036	-76.3999	7.34516	11.8141	-126.941	34.0725	-0.628768	-120.172	23.6375	-21.258	-108.192	14.4492	-47.6875	-142.399	2.27965	0.288366	-125.412	-12.5405	-15.1111	-108.513	-34.7269	-27.3238	-140.673	-12.1922	26.6744	-117.364	-30.413	40.228	-103.783	-20.5612	66.9267	-149.365	-22.1669	42.171	-124.987	-27.8406	56.8345	-115.896	-13.4007	78.7233	-173.363	25.1671	55.9577	-173.174	34.3747	87.1874	-151.829	50.9472	66.3551	
251	2.09167	-118.559	53.2605	73.0035	-96.6383	38.8421	53.8975	-81.1616	25.5829	30.3048	-70.5375	14.8067	13.6344	-123.479	30.4031	-1.62706	-109.731	24.2816	-20.9297	-96.9122	18.5711	-40.1267	-128.058	1.47832	3.98279	-108.87	-13.1406	-7.57751	-82.3367	-28.6032	-17.4503	-124.652	-15.6248	29.1902	-98.7162	-21.3486	43.4501	-92.2307	-9.69641	74.4844	-134.836	-23.0683	45.702	-109.312	-23.6257	59.2572	-102.995	-3.58973	82.9837	-169.336	15.9025	52.5017	-175.719	27.2139	85.1446	-159.067	45.759	62.3392	
252	2.1	-124.765	54.9079	73.2274	-96.5466	46.152	50.1791	-78.258	36.9214	33.3688	-62.5948	27.703	19.1665	-119.329	33.9671	1.53181	-100.623	26.3229	-20.0982	-85.6264	23.0462	-39.3987	-114.297	1.6463	6.25238	-90.4518	-3.57315	-1.95933	-56.5694	-13.831	-8.86161	-111.808	-10.3457	32.4871	-86.9527	-10.4333	47.0453	-83.7338	1.11301	78.2617	-115.98	-24.0393	49.4422	-95.2181	-10.7032	63.6325	-95.392	6.64386	84.5941	-162.217	9.44734	53.8822	-173.685	20.1052	82.1148	-159.897	43.5147	59.4509	
253	2.10833	-128.53	62.8826	73.0065	-100.791	53.9249	54.3194	-77.6945	50.1219	34.177	-59.8603	44.8727	21.5573	-111.769	33.5997	0.270044	-94.101	37.6737	-13.701	-76.0275	38.0675	-31.9196	-100.718	9.91273	9.72787	-77.7004	10.2965	3.5172	-43.9912	7.89692	1.58959	-96.0334	-3.2596	37.0223	-75.0873	2.67496	55.0677	-79.0427	19.8875	85.1666	-101.131	-14.9651	51.8777	-84.4348	1.07078	68.7973	-86.8556	15.167	90.4757	-153.61	2.53272	50.2812	-168.478	10.7216	78.0672	-157.28	41.0356	56.1611	
254	2.11667	-135.65	59.3878	68.23	-105.724	64.5207	52.5303	-83.4091	61.7766	36.783	-63.052	57.3398	22.1715	-109.389	41.4123	3.90619	-88.976	47.1007	-11.5447	-66.6703	50.05	-28.0692	-96.4406	14.6515	14.5273	-68.6094	21.8658	7.88345	-32.2335	30.0564	7.20942	-89.0405	6.32615	40.3557	-67.8459	22.6393	60.4749	-76.5834	34.9514	89.3477	-89.5445	-6.17706	57.6619	-78.3779	13.8215	71.536	-88.023	30.7392	93.8587	-144.379	0.494002	50.9757	-161.091	6.34287	78.7456	-159.067	34.8216	56.9774	
255	2.125	-142.665	57.1789	68.4503	-117.179	68.6033	53.5986	-92.5433	72.3781	36.2397	-71.5876	70.1899	23.2409	-109.592	44.0565	5.231	-87.1777	53.1273	-10.5698	-68.9899	60.0959	-22.8777	-90.1475	27.5753	14.7386	-65.3234	34.1107	12.2267	-33.8002	49.4046	12.3377	-84.3838	19.4904	42.6854	-66.4091	36.5441	65.536	-78.2576	52.7022	91.8075	-80.7594	9.24537	60.2285	-74.811	25.2765	78.6932	-91.4531	41.0341	99.9192	-135.19	-1.01211	53.1766	-155.611	0.544891	79.0746	-158.472	25.1385	57.8243	
256	2.13333	-153.21	56.0613	68.8557	-128.704	71.7597	50.4821	-104.849	74.3129	33.7229	-84.5957	82.3575	19.1212	-113.317	47.8763	6.99589	-93.3653	64.0754	-10.8757	-73.7809	73.2168	-23.0875	-88.0231	29.791	18.8272	-65.9674	46.7742	12.2835	-41.2666	68.1828	11.9738	-80.9843	32.0792	46.4069	-69.5362	50.5744	65.4348	-83.0456	63.4809	91.5277	-78.0749	18.7912	63.3868	-78.6435	41.7687	77.4097	-95.7363	50.559	98.0622	-126.546	-2.30305	55.6284	-149.558	-5.35136	80.0215	-156.096	17.4403	58.0113	
257	2.14167	-160.593	51.18	68.2701	-139.599	68.8353	46.9406	-118.407	75.7891	32.8651	-99.221	84.5823	19.0092	-115.598	49.4317	3.46914	-97.8147	63.2664	-9.80305	-84.2458	76.077	-21.965	-91.529	38.833	16.5689	-67.6727	58.3833	12.9976	-50.9009	83.6065	10.468	-84.4344	35.0782	47.2993	-75.6834	60.1826	65.0133	-91.7504	74.5689	88.4493	-79.1624	28.1492	66.0107	-84.5657	50.933	81.4473	-102.89	56.714	102.073	-121.051	-1.51432	57.5495	-143.553	-9.65909	83.7191	-150.698	13.3724	56.0306	
258	2.15	-163.38	42.8114	67.1973	-148.464	61.754	50.0331	-130.233	76.9455	24.6488	-115.712	84.3089	12.9444	-121.2	44.3722	3.59805	-109.254	59.5554	-12.17	-97.7303	74.6303	-27.1938	-93.4381	36.659	16.8836	-78.7028	62.6557	7.37834	-58.5753	88.2738	6.19742	-88.1171	42.3459	46.13	-86.0425	69.0165	61.104	-101.339	79.4175	89.9503	-82.8841	36.097	62.2188	-89.8073	57.2224	80.9044	-108.536	57.695	96.3166	-119.34	-5.16082	61.0664	-140.558	-10.4196	83.2837	-152.527	7.81139	58.8951	
259	2.15833	-167.134	37.4809	63.6962	-155.585	56.6333	43.125	-138.916	68.1104	18.681	-129.855	81.7635	4.94052	-128.049	36.8289	0.656824	-124.586	54.6923	-17.0887	-113.201	70.3213	-34.2663	-101.162	34.3427	11.1037	-89.2837	55.9124	1.44578	-73.9351	89.7521	-6.09195	-91.5154	42.1448	42.1614	-91.3431	66.8153	53.5558	-110.084	81.3182	80.0064	-87.1808	33.1679	57.0689	-93.4324	56.9469	74.7522	-117.623	58.6392	90.959	-118.29	-8.9902	61.8898	-137.567	-12.5564	86.0267	-156.904	1.95636	56.3576	
260	2.16667	-169.611	30.066	63.6251	-162.613	48.8045	39.3102	-149.914	60.4499	15.313	-140.757	71.6612	1.04232	-135.922	28.8545	-4.99093	-130.261	42.9985	-21.132	-125.479	60.8687	-42.1103	-110.662	26.9913	5.19681	-99.9456	48.9794	-8.04959	-87.2287	81.6833	-18.9107	-101.501	35.0489	32.4726	-99.3594	64.1604	41.7537	-112.434	77.9533	68.9355	-91.1368	36.8456	50.6716	-98.6496	55.1311	62.9697	-122.738	57.6449	85.2694	-119.305	-11.1605	59.824	-135.312	-16.3136	86.2644	-154.839	-4.4041	60.2632	
261	2.175	-175.413	24.4213	66.8851	-169.002	42.3366	38.0746	-156.429	51.3637	10.0496	-150.099	61.6369	-7.05688	-150.345	19.8113	-7.06248	-145.383	34.7846	-28.7274	-134.717	47.5963	-47.7521	-119.516	17.5357	-0.817772	-107.485	38.9499	-15.8269	-98.3479	65.5516	-27.2022	-105.823	26.9413	27.1726	-102.032	58.7199	35.3137	-116.56	75.2067	57.8406	-97.0033	26.4205	42.8559	-103.255	49.8219	55.7424	-123.856	52.7519	77.8128	-124.253	-14.6316	54.5851	-135.014	-20.416	84.7852	-164.69	-9.82993	59.6072	
262	2.18333	-179.483	19.6942	66.9794	-171.896	32.7455	37.2895	-167.201	43.4302	12.716	-158.827	51.7411	-13.6901	-154.985	7.67128	-7.5286	-155.982	22.5248	-30.9137	-146.702	33.0016	-53.0407	-129.326	6.39041	-0.54056	-120.992	26.288	-21.7131	-108.711	53.2676	-37.6328	-112.33	20.1394	21.3067	-109.412	51.4621	26.1424	-120.68	69.7758	46.1335	-100.307	22.1226	36.8243	-108.416	46.8807	50.4768	-122.941	52.3905	69.558	-133.683	-21.2979	57.8422	-139.514	-23.2482	91.0102	-164.753	-14.5035	64.9345	
263	2.19167	-186.411	18.6355	67.7931	-181.086	29.6491	34.8975	-175.36	36.3892	7.25598	-168.368	41.2262	-13.1173	-168.991	-0.0347039	-6.19492	-167.01	10.805	-31.11	-164.848	20.3648	-51.8232	-140.189	-3.08857	-2.33376	-131.48	15.2214	-26.5237	-122.469	41.1184	-47.6582	-124.257	10.5251	15.3941	-115.887	39.2606	16.1118	-125.766	63.7654	35.71	-110.065	12.1333	32.2655	-115.895	39.7943	40.2336	-127.461	49.0089	64.2944	-135.767	-25.0644	57.9742	-142.879	-23.4668	91.6349	-173.259	-17.5725	63.1636	
264	2.2	-186.053	16.7695	69.7262	-184.758	28.4225	40.5133	-181.867	32.3822	5.37258	-177.188	37.6546	-12.7009	-175.775	-6.43217	-5.16273	-180.313	4.50736	-25.8824	-177.002	11.8665	-50.5565	-147.017	-8.48301	-6.69801	-145.033	8.09118	-27.8846	-137.599	29.904	-50.6087	-129.432	1.98954	13.4045	-124.777	33.508	8.58532	-128.287	57.2677	27.4353	-114.668	7.59297	26.1511	-116.003	31.7603	30.4907	-127.019	44.1173	51.9605	-146.187	-27.6022	57.2282	-147.813	-25.0444	88.3692	-178.185	-20.0908	68.9834	
265	2.20833	-190.706	20.1557	65.1588	-186.781	30.0571	39.561	-187.79	35.9699	8.94583	-180.372	36.6975	-13.1352	-186.732	-6.16074	-1.07657	-189.729	4.8694	-30.5147	-187.368	11.54	-50.9904	-162.083	-12.3896	-5.09525	-153.402	-0.0884535	-27.8138	-145.28	20.708	-54.3191	-139.271	-2.27317	7.3199	-124.615	23.872	3.33976	-124.011	48.8948	18.6755	-122.309	-4.00293	22.0156	-118.979	25.5218	25.0558	-124.11	40.9672	46.5152	-155.168	-32.6073	58.279	-156.112	-28.9846	86.4981	-188.111	-16.8548	67.9148	
